G75*
%MOIN*%
%OFA0B0*%
%FSLAX24Y24*%
%IPPOS*%
%LPD*%
%AMOC8*
5,1,8,0,0,1.08239X$1,22.5*
%
%ADD10C,0.0040*%
%ADD11R,0.0327X0.0158*%
%ADD12R,0.0158X0.0327*%
%ADD13R,0.1024X0.1024*%
%ADD14R,0.0276X0.0394*%
%ADD15C,0.0631*%
%ADD16R,0.0453X0.0296*%
%ADD17R,0.0394X0.0276*%
%ADD18R,0.0473X0.0532*%
%ADD19R,0.0552X0.0788*%
%ADD20C,0.0237*%
%ADD21C,0.0434*%
D10*
X001440Y000190D02*
X000190Y001440D01*
X000190Y014040D01*
X001440Y015290D01*
X009440Y015290D01*
X010690Y014040D01*
X010690Y001440D01*
X009440Y000190D01*
X001440Y000190D01*
X001940Y001440D02*
X001440Y001940D01*
X001440Y002740D01*
X001940Y003240D01*
X008940Y003240D01*
X009440Y002740D01*
X009440Y001940D01*
X008940Y001440D01*
X001940Y001440D01*
X001940Y012240D02*
X001440Y012740D01*
X001440Y013540D01*
X001940Y014040D01*
X008940Y014040D01*
X009440Y013540D01*
X009440Y012740D01*
X008940Y012240D01*
X001940Y012240D01*
D11*
X004668Y007684D03*
X004668Y007487D03*
X004668Y007290D03*
X004668Y007093D03*
X004668Y006896D03*
X006212Y006896D03*
X006212Y007093D03*
X006212Y007290D03*
X006212Y007487D03*
X006212Y007684D03*
D12*
X005834Y008062D03*
X005637Y008062D03*
X005440Y008062D03*
X005243Y008062D03*
X005046Y008062D03*
X005046Y006518D03*
X005243Y006518D03*
X005440Y006518D03*
X005637Y006518D03*
X005834Y006518D03*
D13*
X005440Y007290D03*
D14*
X005695Y008740D03*
X006285Y008740D03*
X006995Y004690D03*
X007585Y004690D03*
X002785Y010390D03*
X002195Y010390D03*
D15*
X002940Y011640D03*
X003940Y011640D03*
X004940Y011640D03*
X005940Y011640D03*
X006940Y011640D03*
X007940Y011640D03*
D16*
X006207Y006013D03*
X006207Y005167D03*
X004573Y005167D03*
X004573Y006013D03*
D17*
X006940Y005885D03*
X006940Y005295D03*
X004190Y009645D03*
X004190Y010235D03*
X003540Y010235D03*
X003540Y009645D03*
D18*
X002632Y009540D03*
X002632Y008340D03*
X002632Y007140D03*
X002632Y005940D03*
X002632Y004740D03*
X001648Y004740D03*
X001648Y005940D03*
X001648Y007140D03*
X001648Y008340D03*
X001648Y009540D03*
X008248Y009540D03*
X008248Y008340D03*
X008248Y007140D03*
X008248Y005940D03*
X008248Y004740D03*
X009232Y004740D03*
X009232Y005940D03*
X009232Y007140D03*
X009232Y008340D03*
X009232Y009540D03*
X009232Y010740D03*
X008248Y010740D03*
D19*
X007223Y010620D03*
X007223Y009360D03*
X005057Y009360D03*
X005057Y010620D03*
D20*
X001240Y014240D03*
X009640Y014240D03*
X009640Y001240D03*
X001240Y001240D03*
D21*
X007290Y007890D03*
M02*
