G75*
%MOIN*%
%OFA0B0*%
%FSLAX24Y24*%
%IPPOS*%
%LPD*%
%AMOC8*
5,1,8,0,0,1.08239X$1,22.5*
%
%ADD10C,0.0040*%
%ADD11C,0.3500*%
%ADD12R,0.1000X0.2000*%
%ADD13C,0.0591*%
%ADD14C,0.0080*%
%ADD15C,0.0317*%
D10*
X001440Y000190D02*
X000190Y001440D01*
X000190Y014040D01*
X001440Y015290D01*
X009440Y015290D01*
X010690Y014040D01*
X010690Y001440D01*
X009440Y000190D01*
X001440Y000190D01*
X001940Y001440D02*
X001440Y001940D01*
X001440Y002740D01*
X001940Y003240D01*
X008940Y003240D01*
X009440Y002740D01*
X009440Y001940D01*
X008940Y001440D01*
X001940Y001440D01*
X003190Y010740D02*
X003390Y010940D01*
X003390Y011640D01*
X001940Y012240D02*
X001440Y012740D01*
X001440Y013540D01*
X001940Y014040D01*
X008940Y014040D01*
X009440Y013540D01*
X009440Y012740D01*
X008940Y012240D01*
X001940Y012240D01*
D11*
X005440Y007740D03*
D12*
X009940Y007740D03*
X000940Y007740D03*
D13*
X002940Y011640D03*
X003940Y011640D03*
X004940Y011640D03*
X005940Y011640D03*
X006940Y011640D03*
X007940Y011640D03*
D14*
X003440Y001054D02*
X000831Y001054D01*
X000753Y001132D02*
X003440Y001132D01*
X003440Y001211D02*
X000674Y001211D01*
X000596Y001289D02*
X001836Y001289D01*
X001865Y001260D02*
X003440Y001260D01*
X003440Y000370D01*
X001515Y000370D01*
X000370Y001515D01*
X000370Y006619D01*
X000386Y006610D01*
X000422Y006600D01*
X000900Y006600D01*
X000900Y007700D01*
X000980Y007700D01*
X000980Y007780D01*
X000900Y007780D01*
X000900Y008880D01*
X000422Y008880D01*
X000386Y008870D01*
X000370Y008861D01*
X000370Y013965D01*
X001515Y015110D01*
X003440Y015110D01*
X003440Y014220D01*
X001865Y014220D01*
X001760Y014115D01*
X001260Y013615D01*
X001260Y012665D01*
X001365Y012560D01*
X001865Y012060D01*
X002764Y012060D01*
X002682Y012026D01*
X002554Y011898D01*
X002485Y011731D01*
X002485Y011549D01*
X002554Y011382D01*
X002682Y011254D01*
X002849Y011185D01*
X003031Y011185D01*
X003198Y011254D01*
X003326Y011382D01*
X003395Y011549D01*
X003395Y011731D01*
X003326Y011898D01*
X003198Y012026D01*
X003116Y012060D01*
X003440Y012060D01*
X003440Y006998D01*
X003410Y007070D01*
X003320Y007160D01*
X003203Y007208D01*
X003077Y007208D01*
X002960Y007160D01*
X002870Y007070D01*
X002822Y006953D01*
X002822Y006827D01*
X002870Y006711D01*
X002820Y006760D01*
X002703Y006808D01*
X002577Y006808D01*
X002460Y006760D01*
X002370Y006670D01*
X002322Y006553D01*
X002322Y006427D01*
X002370Y006310D01*
X002460Y006220D01*
X002577Y006172D01*
X002626Y006172D01*
X003440Y005357D01*
X003440Y003420D01*
X001865Y003420D01*
X001760Y003315D01*
X001260Y002815D01*
X001260Y001865D01*
X001865Y001260D01*
X001758Y001368D02*
X000517Y001368D01*
X000439Y001446D02*
X001679Y001446D01*
X001601Y001525D02*
X000370Y001525D01*
X000370Y001603D02*
X001522Y001603D01*
X001444Y001682D02*
X000370Y001682D01*
X000370Y001760D02*
X001365Y001760D01*
X001287Y001839D02*
X000370Y001839D01*
X000370Y001917D02*
X001260Y001917D01*
X001260Y001996D02*
X000370Y001996D01*
X000370Y002074D02*
X001260Y002074D01*
X001260Y002153D02*
X000370Y002153D01*
X000370Y002231D02*
X001260Y002231D01*
X001260Y002310D02*
X000370Y002310D01*
X000370Y002388D02*
X001260Y002388D01*
X001260Y002467D02*
X000370Y002467D01*
X000370Y002545D02*
X001260Y002545D01*
X001260Y002624D02*
X000370Y002624D01*
X000370Y002702D02*
X001260Y002702D01*
X001260Y002781D02*
X000370Y002781D01*
X000370Y002859D02*
X001304Y002859D01*
X001383Y002938D02*
X000370Y002938D01*
X000370Y003016D02*
X001461Y003016D01*
X001540Y003095D02*
X000370Y003095D01*
X000370Y003173D02*
X001618Y003173D01*
X001697Y003252D02*
X000370Y003252D01*
X000370Y003330D02*
X001775Y003330D01*
X001854Y003409D02*
X000370Y003409D01*
X000370Y003487D02*
X003440Y003487D01*
X003362Y003487D02*
X010510Y003487D01*
X010510Y003409D02*
X009026Y003409D01*
X009015Y003420D02*
X003362Y003420D01*
X003375Y005422D01*
X003540Y005257D01*
X003540Y005239D01*
X003540Y005157D01*
X003541Y005157D01*
X003541Y005156D01*
X003573Y005124D01*
X003520Y005070D01*
X003472Y004953D01*
X003472Y004827D01*
X003520Y004710D01*
X003610Y004620D01*
X003727Y004572D01*
X003853Y004572D01*
X003970Y004620D01*
X004060Y004710D01*
X004108Y004827D01*
X004108Y004939D01*
X004124Y004923D01*
X004241Y004806D01*
X006539Y004806D01*
X006773Y005040D01*
X007058Y005040D01*
X007059Y005039D01*
X007141Y005040D01*
X007223Y005040D01*
X007223Y005041D01*
X007224Y005041D01*
X007282Y005099D01*
X007340Y005157D01*
X007340Y005158D01*
X007341Y005159D01*
X007340Y005241D01*
X007340Y005323D01*
X007339Y005323D01*
X007337Y005605D01*
X008273Y006540D01*
X008390Y006657D01*
X008390Y009973D01*
X007940Y010423D01*
X007940Y010490D01*
X008010Y010560D01*
X008058Y010677D01*
X008058Y010803D01*
X008010Y010920D01*
X007920Y011010D01*
X007803Y011058D01*
X007677Y011058D01*
X007560Y011010D01*
X007470Y010920D01*
X007422Y010803D01*
X007422Y010677D01*
X007470Y010560D01*
X007540Y010490D01*
X007540Y010257D01*
X007657Y010140D01*
X007990Y009807D01*
X007990Y009740D01*
X007920Y009810D01*
X007803Y009858D01*
X007677Y009858D01*
X007560Y009810D01*
X007470Y009720D01*
X007422Y009603D01*
X007422Y009477D01*
X007470Y009360D01*
X007540Y009290D01*
X007540Y009007D01*
X007657Y008890D01*
X007840Y008707D01*
X007840Y008643D01*
X007803Y008658D01*
X007677Y008658D01*
X007560Y008610D01*
X007470Y008520D01*
X007422Y008403D01*
X007422Y008277D01*
X007470Y008160D01*
X007540Y008090D01*
X007540Y006823D01*
X007330Y006613D01*
X007324Y007393D01*
X007350Y007489D01*
X007350Y007991D01*
X007319Y008106D01*
X007296Y011352D01*
X007326Y011382D01*
X007395Y011549D01*
X007395Y011731D01*
X007326Y011898D01*
X007292Y011932D01*
X007291Y012060D01*
X007764Y012060D01*
X007682Y012026D01*
X007554Y011898D01*
X007485Y011731D01*
X007485Y011549D01*
X007554Y011382D01*
X007682Y011254D01*
X007849Y011185D01*
X008031Y011185D01*
X008198Y011254D01*
X008326Y011382D01*
X008395Y011549D01*
X008395Y011731D01*
X008326Y011898D01*
X008198Y012026D01*
X008116Y012060D01*
X009015Y012060D01*
X009120Y012165D01*
X009620Y012665D01*
X009620Y013615D01*
X009015Y014220D01*
X003433Y014220D01*
X003438Y015110D01*
X009365Y015110D01*
X010510Y013965D01*
X010510Y008861D01*
X010494Y008870D01*
X010458Y008880D01*
X009980Y008880D01*
X009980Y007780D01*
X009900Y007780D01*
X009900Y008880D01*
X009422Y008880D01*
X009386Y008870D01*
X009354Y008852D01*
X009328Y008826D01*
X009310Y008794D01*
X009300Y008758D01*
X009300Y007780D01*
X009900Y007780D01*
X009900Y007700D01*
X009980Y007700D01*
X009980Y006600D01*
X010458Y006600D01*
X010494Y006610D01*
X010510Y006619D01*
X010510Y001515D01*
X009365Y000370D01*
X003342Y000370D01*
X003347Y001260D01*
X009015Y001260D01*
X009120Y001365D01*
X009620Y001865D01*
X009620Y002815D01*
X009515Y002920D01*
X009015Y003420D01*
X009105Y003330D02*
X010510Y003330D01*
X010510Y003252D02*
X009183Y003252D01*
X009262Y003173D02*
X010510Y003173D01*
X010510Y003095D02*
X009340Y003095D01*
X009419Y003016D02*
X010510Y003016D01*
X010510Y002938D02*
X009497Y002938D01*
X009576Y002859D02*
X010510Y002859D01*
X010510Y002781D02*
X009620Y002781D01*
X009620Y002702D02*
X010510Y002702D01*
X010510Y002624D02*
X009620Y002624D01*
X009620Y002545D02*
X010510Y002545D01*
X010510Y002467D02*
X009620Y002467D01*
X009620Y002388D02*
X010510Y002388D01*
X010510Y002310D02*
X009620Y002310D01*
X009620Y002231D02*
X010510Y002231D01*
X010510Y002153D02*
X009620Y002153D01*
X009620Y002074D02*
X010510Y002074D01*
X010510Y001996D02*
X009620Y001996D01*
X009620Y001917D02*
X010510Y001917D01*
X010510Y001839D02*
X009593Y001839D01*
X009515Y001760D02*
X010510Y001760D01*
X010510Y001682D02*
X009436Y001682D01*
X009358Y001603D02*
X010510Y001603D01*
X010510Y001525D02*
X009279Y001525D01*
X009201Y001446D02*
X010441Y001446D01*
X010363Y001368D02*
X009122Y001368D01*
X009044Y001289D02*
X010284Y001289D01*
X010206Y001211D02*
X003347Y001211D01*
X003347Y001132D02*
X010127Y001132D01*
X010049Y001054D02*
X003346Y001054D01*
X003345Y000975D02*
X009970Y000975D01*
X009892Y000897D02*
X003345Y000897D01*
X003344Y000818D02*
X009813Y000818D01*
X009735Y000740D02*
X003344Y000740D01*
X003343Y000661D02*
X009656Y000661D01*
X009578Y000583D02*
X003343Y000583D01*
X003342Y000504D02*
X009499Y000504D01*
X009421Y000426D02*
X003342Y000426D01*
X003440Y000426D02*
X001459Y000426D01*
X001381Y000504D02*
X003440Y000504D01*
X003440Y000583D02*
X001302Y000583D01*
X001224Y000661D02*
X003440Y000661D01*
X003440Y000740D02*
X001145Y000740D01*
X001067Y000818D02*
X003440Y000818D01*
X003440Y000897D02*
X000988Y000897D01*
X000910Y000975D02*
X003440Y000975D01*
X003440Y003566D02*
X000370Y003566D01*
X000370Y003644D02*
X003440Y003644D01*
X003363Y003644D02*
X010510Y003644D01*
X010510Y003566D02*
X003363Y003566D01*
X003364Y003723D02*
X010510Y003723D01*
X010510Y003801D02*
X003364Y003801D01*
X003440Y003801D02*
X000370Y003801D01*
X000370Y003723D02*
X003440Y003723D01*
X003440Y003880D02*
X000370Y003880D01*
X000370Y003958D02*
X003440Y003958D01*
X003365Y003958D02*
X010510Y003958D01*
X010510Y003880D02*
X003365Y003880D01*
X003366Y004037D02*
X010510Y004037D01*
X010510Y004115D02*
X003366Y004115D01*
X003440Y004115D02*
X000370Y004115D01*
X000370Y004037D02*
X003440Y004037D01*
X003440Y004194D02*
X000370Y004194D01*
X000370Y004272D02*
X003440Y004272D01*
X003367Y004272D02*
X010510Y004272D01*
X010510Y004194D02*
X003367Y004194D01*
X003368Y004351D02*
X010510Y004351D01*
X010510Y004429D02*
X003368Y004429D01*
X003440Y004429D02*
X000370Y004429D01*
X000370Y004351D02*
X003440Y004351D01*
X003440Y004508D02*
X000370Y004508D01*
X000370Y004586D02*
X003440Y004586D01*
X003369Y004586D02*
X003692Y004586D01*
X003565Y004665D02*
X003370Y004665D01*
X003440Y004665D02*
X000370Y004665D01*
X000370Y004743D02*
X003440Y004743D01*
X003506Y004743D02*
X003370Y004743D01*
X003371Y004822D02*
X003474Y004822D01*
X003440Y004822D02*
X000370Y004822D01*
X000370Y004900D02*
X003440Y004900D01*
X003472Y004900D02*
X003371Y004900D01*
X003372Y004979D02*
X003482Y004979D01*
X003440Y004979D02*
X000370Y004979D01*
X000370Y005057D02*
X003440Y005057D01*
X003372Y005057D02*
X003515Y005057D01*
X003561Y005136D02*
X003373Y005136D01*
X003440Y005136D02*
X000370Y005136D01*
X000370Y005214D02*
X003440Y005214D01*
X003373Y005214D02*
X003540Y005214D01*
X003505Y005293D02*
X003374Y005293D01*
X003440Y005293D02*
X000370Y005293D01*
X000370Y005371D02*
X003426Y005371D01*
X003374Y005371D01*
X003348Y005450D02*
X000370Y005450D01*
X000370Y005528D02*
X003269Y005528D01*
X003191Y005607D02*
X000370Y005607D01*
X000370Y005685D02*
X003112Y005685D01*
X003034Y005764D02*
X000370Y005764D01*
X000370Y005842D02*
X002955Y005842D01*
X002877Y005921D02*
X000370Y005921D01*
X000370Y005999D02*
X002798Y005999D01*
X002720Y006078D02*
X000370Y006078D01*
X000370Y006156D02*
X002641Y006156D01*
X002445Y006235D02*
X000370Y006235D01*
X000370Y006313D02*
X002369Y006313D01*
X002336Y006392D02*
X000370Y006392D01*
X000370Y006470D02*
X002322Y006470D01*
X002322Y006549D02*
X000370Y006549D01*
X000900Y006627D02*
X000980Y006627D01*
X000980Y006600D02*
X001458Y006600D01*
X001494Y006610D01*
X001526Y006628D01*
X001552Y006654D01*
X001570Y006686D01*
X001580Y006722D01*
X001580Y007700D01*
X000980Y007700D01*
X000980Y006600D01*
X000980Y006706D02*
X000900Y006706D01*
X000900Y006784D02*
X000980Y006784D01*
X000980Y006863D02*
X000900Y006863D01*
X000900Y006941D02*
X000980Y006941D01*
X000980Y007020D02*
X000900Y007020D01*
X000900Y007098D02*
X000980Y007098D01*
X000980Y007177D02*
X000900Y007177D01*
X000900Y007255D02*
X000980Y007255D01*
X000980Y007334D02*
X000900Y007334D01*
X000900Y007412D02*
X000980Y007412D01*
X000980Y007491D02*
X000900Y007491D01*
X000900Y007569D02*
X000980Y007569D01*
X000980Y007648D02*
X000900Y007648D01*
X000980Y007726D02*
X003440Y007726D01*
X003440Y007648D02*
X001580Y007648D01*
X001580Y007569D02*
X003440Y007569D01*
X003440Y007491D02*
X001580Y007491D01*
X001580Y007412D02*
X003440Y007412D01*
X003440Y007334D02*
X001580Y007334D01*
X001580Y007255D02*
X003440Y007255D01*
X003440Y007177D02*
X003280Y007177D01*
X003382Y007098D02*
X003440Y007098D01*
X003431Y007020D02*
X003440Y007020D01*
X003140Y006890D02*
X003140Y006190D01*
X004324Y005006D01*
X006456Y005006D01*
X008190Y006740D01*
X008190Y009890D01*
X007740Y010340D01*
X007740Y010740D01*
X008032Y010866D02*
X010510Y010866D01*
X010510Y010788D02*
X008058Y010788D01*
X008058Y010709D02*
X010510Y010709D01*
X010510Y010631D02*
X008039Y010631D01*
X008002Y010552D02*
X010510Y010552D01*
X010510Y010474D02*
X007940Y010474D01*
X007968Y010395D02*
X010510Y010395D01*
X010510Y010317D02*
X008046Y010317D01*
X008125Y010238D02*
X010510Y010238D01*
X010510Y010160D02*
X008203Y010160D01*
X008282Y010081D02*
X010510Y010081D01*
X010510Y010003D02*
X008360Y010003D01*
X008390Y009924D02*
X010510Y009924D01*
X010510Y009846D02*
X008390Y009846D01*
X008390Y009767D02*
X010510Y009767D01*
X010510Y009689D02*
X008390Y009689D01*
X008390Y009610D02*
X010510Y009610D01*
X010510Y009532D02*
X008390Y009532D01*
X008390Y009453D02*
X010510Y009453D01*
X010510Y009375D02*
X008390Y009375D01*
X008390Y009296D02*
X010510Y009296D01*
X010510Y009218D02*
X008390Y009218D01*
X008390Y009139D02*
X010510Y009139D01*
X010510Y009061D02*
X008390Y009061D01*
X008390Y008982D02*
X010510Y008982D01*
X010510Y008904D02*
X008390Y008904D01*
X008390Y008825D02*
X009327Y008825D01*
X009300Y008747D02*
X008390Y008747D01*
X008390Y008668D02*
X009300Y008668D01*
X009300Y008590D02*
X008390Y008590D01*
X008390Y008511D02*
X009300Y008511D01*
X009300Y008433D02*
X008390Y008433D01*
X008390Y008354D02*
X009300Y008354D01*
X009300Y008276D02*
X008390Y008276D01*
X008390Y008197D02*
X009300Y008197D01*
X009300Y008119D02*
X008390Y008119D01*
X008390Y008040D02*
X009300Y008040D01*
X009300Y007962D02*
X008390Y007962D01*
X008390Y007883D02*
X009300Y007883D01*
X009300Y007805D02*
X008390Y007805D01*
X008390Y007726D02*
X009900Y007726D01*
X009900Y007700D02*
X009300Y007700D01*
X009300Y006722D01*
X009310Y006686D01*
X009328Y006654D01*
X009354Y006628D01*
X009386Y006610D01*
X009422Y006600D01*
X009900Y006600D01*
X009900Y007700D01*
X009900Y007648D02*
X009980Y007648D01*
X009980Y007569D02*
X009900Y007569D01*
X009900Y007491D02*
X009980Y007491D01*
X009980Y007412D02*
X009900Y007412D01*
X009900Y007334D02*
X009980Y007334D01*
X009980Y007255D02*
X009900Y007255D01*
X009900Y007177D02*
X009980Y007177D01*
X009980Y007098D02*
X009900Y007098D01*
X009900Y007020D02*
X009980Y007020D01*
X009980Y006941D02*
X009900Y006941D01*
X009900Y006863D02*
X009980Y006863D01*
X009980Y006784D02*
X009900Y006784D01*
X009900Y006706D02*
X009980Y006706D01*
X009980Y006627D02*
X009900Y006627D01*
X009356Y006627D02*
X008360Y006627D01*
X008390Y006706D02*
X009304Y006706D01*
X009300Y006784D02*
X008390Y006784D01*
X008390Y006863D02*
X009300Y006863D01*
X009300Y006941D02*
X008390Y006941D01*
X008390Y007020D02*
X009300Y007020D01*
X009300Y007098D02*
X008390Y007098D01*
X008390Y007177D02*
X009300Y007177D01*
X009300Y007255D02*
X008390Y007255D01*
X008390Y007334D02*
X009300Y007334D01*
X009300Y007412D02*
X008390Y007412D01*
X008390Y007491D02*
X009300Y007491D01*
X009300Y007569D02*
X008390Y007569D01*
X008390Y007648D02*
X009300Y007648D01*
X009900Y007805D02*
X009980Y007805D01*
X009980Y007883D02*
X009900Y007883D01*
X009900Y007962D02*
X009980Y007962D01*
X009980Y008040D02*
X009900Y008040D01*
X009900Y008119D02*
X009980Y008119D01*
X009980Y008197D02*
X009900Y008197D01*
X009900Y008276D02*
X009980Y008276D01*
X009980Y008354D02*
X009900Y008354D01*
X009900Y008433D02*
X009980Y008433D01*
X009980Y008511D02*
X009900Y008511D01*
X009900Y008590D02*
X009980Y008590D01*
X009980Y008668D02*
X009900Y008668D01*
X009900Y008747D02*
X009980Y008747D01*
X009980Y008825D02*
X009900Y008825D01*
X010510Y010945D02*
X007986Y010945D01*
X007889Y011023D02*
X010510Y011023D01*
X010510Y011102D02*
X007298Y011102D01*
X007297Y011180D02*
X010510Y011180D01*
X010510Y011259D02*
X008202Y011259D01*
X008281Y011337D02*
X010510Y011337D01*
X010510Y011416D02*
X008340Y011416D01*
X008372Y011494D02*
X010510Y011494D01*
X010510Y011573D02*
X008395Y011573D01*
X008395Y011651D02*
X010510Y011651D01*
X010510Y011730D02*
X008395Y011730D01*
X008363Y011808D02*
X010510Y011808D01*
X010510Y011887D02*
X008331Y011887D01*
X008259Y011965D02*
X010510Y011965D01*
X010510Y012044D02*
X008155Y012044D01*
X007725Y012044D02*
X007291Y012044D01*
X007291Y011965D02*
X007621Y011965D01*
X007549Y011887D02*
X007331Y011887D01*
X007363Y011808D02*
X007517Y011808D01*
X007485Y011730D02*
X007395Y011730D01*
X007395Y011651D02*
X007485Y011651D01*
X007485Y011573D02*
X007395Y011573D01*
X007372Y011494D02*
X007508Y011494D01*
X007540Y011416D02*
X007340Y011416D01*
X007296Y011337D02*
X007599Y011337D01*
X007678Y011259D02*
X007296Y011259D01*
X007298Y011023D02*
X007591Y011023D01*
X007494Y010945D02*
X007299Y010945D01*
X007299Y010866D02*
X007448Y010866D01*
X007422Y010788D02*
X007300Y010788D01*
X007300Y010709D02*
X007422Y010709D01*
X007441Y010631D02*
X007301Y010631D01*
X007302Y010552D02*
X007478Y010552D01*
X007540Y010474D02*
X007302Y010474D01*
X007303Y010395D02*
X007540Y010395D01*
X007540Y010317D02*
X007303Y010317D01*
X007304Y010238D02*
X007559Y010238D01*
X007638Y010160D02*
X007304Y010160D01*
X007305Y010081D02*
X007716Y010081D01*
X007795Y010003D02*
X007305Y010003D01*
X007306Y009924D02*
X007873Y009924D01*
X007834Y009846D02*
X007952Y009846D01*
X007963Y009767D02*
X007990Y009767D01*
X007740Y009540D02*
X007740Y009090D01*
X008040Y008790D01*
X008040Y006790D01*
X006455Y005205D01*
X004525Y005205D01*
X003440Y006290D01*
X003440Y006440D01*
X003740Y006240D02*
X004606Y005374D01*
X006374Y005374D01*
X007740Y006740D01*
X007740Y008340D01*
X007511Y008119D02*
X007319Y008119D01*
X007319Y008197D02*
X007455Y008197D01*
X007422Y008276D02*
X007318Y008276D01*
X007317Y008354D02*
X007422Y008354D01*
X007434Y008433D02*
X007317Y008433D01*
X007316Y008511D02*
X007466Y008511D01*
X007539Y008590D02*
X007316Y008590D01*
X007315Y008668D02*
X007840Y008668D01*
X007801Y008747D02*
X007315Y008747D01*
X007314Y008825D02*
X007722Y008825D01*
X007644Y008904D02*
X007313Y008904D01*
X007313Y008982D02*
X007565Y008982D01*
X007540Y009061D02*
X007312Y009061D01*
X007312Y009139D02*
X007540Y009139D01*
X007540Y009218D02*
X007311Y009218D01*
X007311Y009296D02*
X007534Y009296D01*
X007464Y009375D02*
X007310Y009375D01*
X007309Y009453D02*
X007431Y009453D01*
X007422Y009532D02*
X007309Y009532D01*
X007308Y009610D02*
X007424Y009610D01*
X007457Y009689D02*
X007308Y009689D01*
X007307Y009767D02*
X007517Y009767D01*
X007646Y009846D02*
X007307Y009846D01*
X007107Y009846D02*
X003707Y009846D01*
X003706Y009924D02*
X007106Y009924D01*
X007105Y010003D02*
X003705Y010003D01*
X003705Y010081D02*
X007105Y010081D01*
X007104Y010160D02*
X003704Y010160D01*
X003704Y010238D02*
X007104Y010238D01*
X007103Y010317D02*
X003703Y010317D01*
X003703Y010395D02*
X007103Y010395D01*
X007102Y010474D02*
X003702Y010474D01*
X003702Y010552D02*
X007102Y010552D01*
X007101Y010631D02*
X003701Y010631D01*
X003700Y010709D02*
X007100Y010709D01*
X007100Y010788D02*
X003700Y010788D01*
X003699Y010866D02*
X007099Y010866D01*
X007099Y010945D02*
X003699Y010945D01*
X003698Y011023D02*
X007098Y011023D01*
X007098Y011102D02*
X003698Y011102D01*
X003697Y011180D02*
X007097Y011180D01*
X007096Y011259D02*
X007052Y011259D01*
X007019Y011245D02*
X007096Y011277D01*
X007116Y008618D01*
X007036Y008756D01*
X006941Y008892D01*
X006835Y009018D01*
X006718Y009135D01*
X006592Y009241D01*
X006456Y009336D01*
X006314Y009418D01*
X006164Y009488D01*
X006009Y009544D01*
X005849Y009587D01*
X005687Y009616D01*
X005523Y009630D01*
X005480Y009630D01*
X005480Y007780D01*
X005400Y007780D01*
X005400Y009630D01*
X005357Y009630D01*
X005193Y009616D01*
X005031Y009587D01*
X004871Y009544D01*
X004716Y009488D01*
X004566Y009418D01*
X004424Y009336D01*
X004288Y009241D01*
X004162Y009135D01*
X004045Y009018D01*
X003939Y008892D01*
X003844Y008756D01*
X003762Y008614D01*
X003716Y008516D01*
X003696Y011325D01*
X003716Y011305D01*
X003861Y011245D01*
X004019Y011245D01*
X004164Y011305D01*
X004275Y011416D01*
X004335Y011561D01*
X004335Y011719D01*
X004275Y011864D01*
X004164Y011975D01*
X004019Y012035D01*
X003861Y012035D01*
X003716Y011975D01*
X003691Y011950D01*
X003690Y012080D01*
X007090Y012080D01*
X007091Y012005D01*
X007019Y012035D01*
X006861Y012035D01*
X006716Y011975D01*
X006605Y011864D01*
X006545Y011719D01*
X006545Y011561D01*
X006605Y011416D01*
X006716Y011305D01*
X006861Y011245D01*
X007019Y011245D01*
X006828Y011259D02*
X006052Y011259D01*
X006019Y011245D02*
X006164Y011305D01*
X006275Y011416D01*
X006335Y011561D01*
X006335Y011719D01*
X006275Y011864D01*
X006164Y011975D01*
X006019Y012035D01*
X005861Y012035D01*
X005716Y011975D01*
X005605Y011864D01*
X005545Y011719D01*
X005545Y011561D01*
X005605Y011416D01*
X005716Y011305D01*
X005861Y011245D01*
X006019Y011245D01*
X006196Y011337D02*
X006684Y011337D01*
X006605Y011416D02*
X006275Y011416D01*
X006307Y011494D02*
X006573Y011494D01*
X006545Y011573D02*
X006335Y011573D01*
X006335Y011651D02*
X006545Y011651D01*
X006549Y011730D02*
X006331Y011730D01*
X006298Y011808D02*
X006582Y011808D01*
X006628Y011887D02*
X006252Y011887D01*
X006174Y011965D02*
X006706Y011965D01*
X007091Y012044D02*
X005107Y012044D01*
X005107Y012043D02*
X005042Y012065D01*
X004980Y012074D01*
X004980Y011680D01*
X005374Y011680D01*
X005365Y011742D01*
X005343Y011807D01*
X005312Y011868D01*
X005272Y011924D01*
X005224Y011972D01*
X005168Y012012D01*
X005107Y012043D01*
X004980Y012044D02*
X004900Y012044D01*
X004900Y012074D02*
X004838Y012065D01*
X004773Y012043D01*
X004712Y012012D01*
X004656Y011972D01*
X004608Y011924D01*
X004568Y011868D01*
X004537Y011807D01*
X004515Y011742D01*
X004506Y011680D01*
X004900Y011680D01*
X004900Y012074D01*
X004900Y011965D02*
X004980Y011965D01*
X004980Y011887D02*
X004900Y011887D01*
X004900Y011808D02*
X004980Y011808D01*
X004980Y011730D02*
X004900Y011730D01*
X004900Y011680D02*
X004980Y011680D01*
X004980Y011600D01*
X005374Y011600D01*
X005365Y011538D01*
X005343Y011473D01*
X005312Y011412D01*
X005272Y011356D01*
X005224Y011308D01*
X005168Y011268D01*
X005107Y011237D01*
X005042Y011215D01*
X004980Y011206D01*
X004980Y011600D01*
X004900Y011600D01*
X004900Y011206D01*
X004838Y011215D01*
X004773Y011237D01*
X004712Y011268D01*
X004656Y011308D01*
X004608Y011356D01*
X004568Y011412D01*
X004537Y011473D01*
X004515Y011538D01*
X004506Y011600D01*
X004900Y011600D01*
X004900Y011680D01*
X004900Y011651D02*
X004335Y011651D01*
X004335Y011573D02*
X004510Y011573D01*
X004530Y011494D02*
X004307Y011494D01*
X004275Y011416D02*
X004566Y011416D01*
X004627Y011337D02*
X004196Y011337D01*
X004052Y011259D02*
X004730Y011259D01*
X004900Y011259D02*
X004980Y011259D01*
X004980Y011337D02*
X004900Y011337D01*
X004900Y011416D02*
X004980Y011416D01*
X004980Y011494D02*
X004900Y011494D01*
X004900Y011573D02*
X004980Y011573D01*
X004980Y011651D02*
X005545Y011651D01*
X005545Y011573D02*
X005370Y011573D01*
X005350Y011494D02*
X005573Y011494D01*
X005605Y011416D02*
X005314Y011416D01*
X005253Y011337D02*
X005684Y011337D01*
X005828Y011259D02*
X005150Y011259D01*
X005367Y011730D02*
X005549Y011730D01*
X005582Y011808D02*
X005343Y011808D01*
X005299Y011887D02*
X005628Y011887D01*
X005706Y011965D02*
X005231Y011965D01*
X004773Y012044D02*
X003691Y012044D01*
X003691Y011965D02*
X003706Y011965D01*
X003940Y011640D02*
X003390Y011640D01*
X003395Y011651D02*
X003440Y011651D01*
X003440Y011573D02*
X003395Y011573D01*
X003372Y011494D02*
X003440Y011494D01*
X003440Y011416D02*
X003340Y011416D01*
X003281Y011337D02*
X003440Y011337D01*
X003440Y011259D02*
X003202Y011259D01*
X003440Y011180D02*
X000370Y011180D01*
X000370Y011102D02*
X003440Y011102D01*
X003440Y011023D02*
X000370Y011023D01*
X000370Y010945D02*
X003440Y010945D01*
X003440Y010866D02*
X000370Y010866D01*
X000370Y010788D02*
X003440Y010788D01*
X003440Y010709D02*
X000370Y010709D01*
X000370Y010631D02*
X003440Y010631D01*
X003440Y010552D02*
X000370Y010552D01*
X000370Y010474D02*
X003440Y010474D01*
X003440Y010395D02*
X000370Y010395D01*
X000370Y010317D02*
X003440Y010317D01*
X003440Y010238D02*
X000370Y010238D01*
X000370Y010160D02*
X003440Y010160D01*
X003440Y010081D02*
X000370Y010081D01*
X000370Y010003D02*
X003440Y010003D01*
X003440Y009924D02*
X000370Y009924D01*
X000370Y009846D02*
X003440Y009846D01*
X003440Y009767D02*
X000370Y009767D01*
X000370Y009689D02*
X003440Y009689D01*
X003440Y009610D02*
X000370Y009610D01*
X000370Y009532D02*
X003440Y009532D01*
X003440Y009453D02*
X000370Y009453D01*
X000370Y009375D02*
X003440Y009375D01*
X003440Y009296D02*
X000370Y009296D01*
X000370Y009218D02*
X003440Y009218D01*
X003440Y009139D02*
X000370Y009139D01*
X000370Y009061D02*
X003440Y009061D01*
X003440Y008982D02*
X000370Y008982D01*
X000370Y008904D02*
X003440Y008904D01*
X003440Y008825D02*
X001553Y008825D01*
X001552Y008826D02*
X001526Y008852D01*
X001494Y008870D01*
X001458Y008880D01*
X000980Y008880D01*
X000980Y007780D01*
X001580Y007780D01*
X001580Y008758D01*
X001570Y008794D01*
X001552Y008826D01*
X001580Y008747D02*
X003440Y008747D01*
X003440Y008668D02*
X001580Y008668D01*
X001580Y008590D02*
X003440Y008590D01*
X003440Y008511D02*
X001580Y008511D01*
X001580Y008433D02*
X003440Y008433D01*
X003440Y008354D02*
X001580Y008354D01*
X001580Y008276D02*
X003440Y008276D01*
X003440Y008197D02*
X001580Y008197D01*
X001580Y008119D02*
X003440Y008119D01*
X003440Y008040D02*
X001580Y008040D01*
X001580Y007962D02*
X003440Y007962D01*
X003440Y007883D02*
X001580Y007883D01*
X001580Y007805D02*
X003440Y007805D01*
X003000Y007177D02*
X001580Y007177D01*
X001580Y007098D02*
X002898Y007098D01*
X002849Y007020D02*
X001580Y007020D01*
X001580Y006941D02*
X002822Y006941D01*
X002822Y006863D02*
X001580Y006863D01*
X001580Y006784D02*
X002518Y006784D01*
X002405Y006706D02*
X001576Y006706D01*
X001524Y006627D02*
X002352Y006627D01*
X002640Y006490D02*
X002640Y006440D01*
X003790Y005290D01*
X003790Y004890D01*
X004015Y004665D02*
X010510Y004665D01*
X010510Y004743D02*
X004074Y004743D01*
X004106Y004822D02*
X004226Y004822D01*
X004147Y004900D02*
X004108Y004900D01*
X004124Y004923D02*
X004124Y004923D01*
X003888Y004586D02*
X010510Y004586D01*
X010510Y004508D02*
X003369Y004508D01*
X004336Y005842D02*
X006644Y005842D01*
X006566Y005764D02*
X004414Y005764D01*
X004493Y005685D02*
X006487Y005685D01*
X006409Y005607D02*
X004571Y005607D01*
X004650Y005528D02*
X006330Y005528D01*
X006316Y005514D02*
X004664Y005514D01*
X003880Y006298D01*
X003880Y006468D01*
X003886Y006471D01*
X003959Y006544D01*
X003965Y006558D01*
X004045Y006462D01*
X004162Y006345D01*
X004288Y006239D01*
X004424Y006144D01*
X004566Y006062D01*
X004716Y005992D01*
X004871Y005936D01*
X005031Y005893D01*
X005193Y005864D01*
X005357Y005850D01*
X005400Y005850D01*
X005400Y007700D01*
X005480Y007700D01*
X005480Y005850D01*
X005523Y005850D01*
X005687Y005864D01*
X005849Y005893D01*
X006009Y005936D01*
X006164Y005992D01*
X006314Y006062D01*
X006456Y006144D01*
X006592Y006239D01*
X006718Y006345D01*
X006835Y006462D01*
X006941Y006588D01*
X007036Y006724D01*
X007118Y006866D01*
X007128Y006888D01*
X007132Y006330D01*
X006316Y005514D01*
X006090Y005640D02*
X006040Y005640D01*
X005940Y005540D01*
X005952Y005921D02*
X006723Y005921D01*
X006801Y005999D02*
X006179Y005999D01*
X006340Y006078D02*
X006880Y006078D01*
X006958Y006156D02*
X006473Y006156D01*
X006585Y006235D02*
X007037Y006235D01*
X007115Y006313D02*
X006680Y006313D01*
X006764Y006392D02*
X007132Y006392D01*
X007131Y006470D02*
X006842Y006470D01*
X006907Y006549D02*
X007131Y006549D01*
X007130Y006627D02*
X006968Y006627D01*
X007023Y006706D02*
X007129Y006706D01*
X007129Y006784D02*
X007070Y006784D01*
X007116Y006863D02*
X007128Y006863D01*
X007328Y006863D02*
X007540Y006863D01*
X007540Y006941D02*
X007328Y006941D01*
X007327Y007020D02*
X007540Y007020D01*
X007540Y007098D02*
X007327Y007098D01*
X007326Y007177D02*
X007540Y007177D01*
X007540Y007255D02*
X007325Y007255D01*
X007325Y007334D02*
X007540Y007334D01*
X007540Y007412D02*
X007329Y007412D01*
X007350Y007491D02*
X007540Y007491D01*
X007540Y007569D02*
X007350Y007569D01*
X007350Y007648D02*
X007540Y007648D01*
X007540Y007726D02*
X007350Y007726D01*
X007350Y007805D02*
X007540Y007805D01*
X007540Y007883D02*
X007350Y007883D01*
X007350Y007962D02*
X007540Y007962D01*
X007540Y008040D02*
X007337Y008040D01*
X007115Y008668D02*
X007087Y008668D01*
X007115Y008747D02*
X007041Y008747D01*
X006988Y008825D02*
X007114Y008825D01*
X007113Y008904D02*
X006931Y008904D01*
X006865Y008982D02*
X007113Y008982D01*
X007112Y009061D02*
X006792Y009061D01*
X006713Y009139D02*
X007112Y009139D01*
X007111Y009218D02*
X006619Y009218D01*
X006513Y009296D02*
X007111Y009296D01*
X007110Y009375D02*
X006389Y009375D01*
X006239Y009453D02*
X007109Y009453D01*
X007109Y009532D02*
X006044Y009532D01*
X006290Y009690D02*
X006440Y009840D01*
X007107Y009767D02*
X003707Y009767D01*
X003708Y009689D02*
X007108Y009689D01*
X007108Y009610D02*
X005719Y009610D01*
X005480Y009610D02*
X005400Y009610D01*
X005400Y009532D02*
X005480Y009532D01*
X005480Y009453D02*
X005400Y009453D01*
X005400Y009375D02*
X005480Y009375D01*
X005480Y009296D02*
X005400Y009296D01*
X005400Y009218D02*
X005480Y009218D01*
X005480Y009139D02*
X005400Y009139D01*
X005400Y009061D02*
X005480Y009061D01*
X005480Y008982D02*
X005400Y008982D01*
X005400Y008904D02*
X005480Y008904D01*
X005480Y008825D02*
X005400Y008825D01*
X005400Y008747D02*
X005480Y008747D01*
X005480Y008668D02*
X005400Y008668D01*
X005400Y008590D02*
X005480Y008590D01*
X005480Y008511D02*
X005400Y008511D01*
X005400Y008433D02*
X005480Y008433D01*
X005480Y008354D02*
X005400Y008354D01*
X005400Y008276D02*
X005480Y008276D01*
X005480Y008197D02*
X005400Y008197D01*
X005400Y008119D02*
X005480Y008119D01*
X005480Y008040D02*
X005400Y008040D01*
X005400Y007962D02*
X005480Y007962D01*
X005480Y007883D02*
X005400Y007883D01*
X005400Y007805D02*
X005480Y007805D01*
X005480Y007648D02*
X005400Y007648D01*
X005400Y007569D02*
X005480Y007569D01*
X005480Y007491D02*
X005400Y007491D01*
X005400Y007412D02*
X005480Y007412D01*
X005480Y007334D02*
X005400Y007334D01*
X005400Y007255D02*
X005480Y007255D01*
X005480Y007177D02*
X005400Y007177D01*
X005400Y007098D02*
X005480Y007098D01*
X005480Y007020D02*
X005400Y007020D01*
X005400Y006941D02*
X005480Y006941D01*
X005480Y006863D02*
X005400Y006863D01*
X005400Y006784D02*
X005480Y006784D01*
X005480Y006706D02*
X005400Y006706D01*
X005400Y006627D02*
X005480Y006627D01*
X005480Y006549D02*
X005400Y006549D01*
X005400Y006470D02*
X005480Y006470D01*
X005480Y006392D02*
X005400Y006392D01*
X005400Y006313D02*
X005480Y006313D01*
X005480Y006235D02*
X005400Y006235D01*
X005400Y006156D02*
X005480Y006156D01*
X005480Y006078D02*
X005400Y006078D01*
X005400Y005999D02*
X005480Y005999D01*
X005480Y005921D02*
X005400Y005921D01*
X004928Y005921D02*
X004257Y005921D01*
X004179Y005999D02*
X004701Y005999D01*
X004540Y006078D02*
X004100Y006078D01*
X004022Y006156D02*
X004407Y006156D01*
X004295Y006235D02*
X003943Y006235D01*
X003880Y006313D02*
X004200Y006313D01*
X004116Y006392D02*
X003880Y006392D01*
X003884Y006470D02*
X004038Y006470D01*
X003973Y006549D02*
X003961Y006549D01*
X003740Y006690D02*
X003740Y006240D01*
X002839Y006784D02*
X002762Y006784D01*
X003716Y008590D02*
X003751Y008590D01*
X003715Y008668D02*
X003793Y008668D01*
X003839Y008747D02*
X003715Y008747D01*
X003714Y008825D02*
X003892Y008825D01*
X003949Y008904D02*
X003713Y008904D01*
X003713Y008982D02*
X004015Y008982D01*
X004088Y009061D02*
X003712Y009061D01*
X003712Y009139D02*
X004167Y009139D01*
X004261Y009218D02*
X003711Y009218D01*
X003711Y009296D02*
X004367Y009296D01*
X004491Y009375D02*
X003710Y009375D01*
X003709Y009453D02*
X004641Y009453D01*
X004836Y009532D02*
X003709Y009532D01*
X003708Y009610D02*
X005161Y009610D01*
X004290Y010640D02*
X004290Y010840D01*
X003890Y010840D02*
X003890Y010640D01*
X003828Y011259D02*
X003696Y011259D01*
X003440Y011730D02*
X003395Y011730D01*
X003363Y011808D02*
X003440Y011808D01*
X003440Y011887D02*
X003331Y011887D01*
X003259Y011965D02*
X003440Y011965D01*
X003440Y012044D02*
X003155Y012044D01*
X002725Y012044D02*
X000370Y012044D01*
X000370Y012122D02*
X001803Y012122D01*
X001725Y012201D02*
X000370Y012201D01*
X000370Y012279D02*
X001646Y012279D01*
X001568Y012358D02*
X000370Y012358D01*
X000370Y012436D02*
X001489Y012436D01*
X001411Y012515D02*
X000370Y012515D01*
X000370Y012593D02*
X001332Y012593D01*
X001260Y012672D02*
X000370Y012672D01*
X000370Y012750D02*
X001260Y012750D01*
X001260Y012829D02*
X000370Y012829D01*
X000370Y012907D02*
X001260Y012907D01*
X001260Y012986D02*
X000370Y012986D01*
X000370Y013064D02*
X001260Y013064D01*
X001260Y013143D02*
X000370Y013143D01*
X000370Y013221D02*
X001260Y013221D01*
X001260Y013300D02*
X000370Y013300D01*
X000370Y013378D02*
X001260Y013378D01*
X001260Y013457D02*
X000370Y013457D01*
X000370Y013535D02*
X001260Y013535D01*
X001260Y013614D02*
X000370Y013614D01*
X000370Y013692D02*
X001337Y013692D01*
X001416Y013771D02*
X000370Y013771D01*
X000370Y013849D02*
X001494Y013849D01*
X001573Y013928D02*
X000370Y013928D01*
X000411Y014006D02*
X001651Y014006D01*
X001730Y014085D02*
X000489Y014085D01*
X000568Y014163D02*
X001808Y014163D01*
X001274Y014870D02*
X003440Y014870D01*
X003437Y014870D02*
X009606Y014870D01*
X009527Y014948D02*
X003437Y014948D01*
X003440Y014948D02*
X001353Y014948D01*
X001431Y015027D02*
X003440Y015027D01*
X003438Y015027D02*
X009449Y015027D01*
X009370Y015105D02*
X003438Y015105D01*
X003440Y015105D02*
X001510Y015105D01*
X001196Y014791D02*
X003440Y014791D01*
X003436Y014791D02*
X009684Y014791D01*
X009763Y014713D02*
X003436Y014713D01*
X003440Y014713D02*
X001117Y014713D01*
X001039Y014634D02*
X003440Y014634D01*
X003435Y014634D02*
X009841Y014634D01*
X009920Y014556D02*
X003435Y014556D01*
X003440Y014556D02*
X000960Y014556D01*
X000882Y014477D02*
X003440Y014477D01*
X003434Y014477D02*
X009998Y014477D01*
X010077Y014399D02*
X003434Y014399D01*
X003440Y014399D02*
X000803Y014399D01*
X000725Y014320D02*
X003440Y014320D01*
X003433Y014320D02*
X010155Y014320D01*
X010234Y014242D02*
X003433Y014242D01*
X003440Y014242D02*
X000646Y014242D01*
X000370Y011965D02*
X002621Y011965D01*
X002549Y011887D02*
X000370Y011887D01*
X000370Y011808D02*
X002517Y011808D01*
X002485Y011730D02*
X000370Y011730D01*
X000370Y011651D02*
X002485Y011651D01*
X002485Y011573D02*
X000370Y011573D01*
X000370Y011494D02*
X002508Y011494D01*
X002540Y011416D02*
X000370Y011416D01*
X000370Y011337D02*
X002599Y011337D01*
X002678Y011259D02*
X000370Y011259D01*
X001690Y010690D02*
X001690Y010540D01*
X000980Y008825D02*
X000900Y008825D01*
X000900Y008747D02*
X000980Y008747D01*
X000980Y008668D02*
X000900Y008668D01*
X000900Y008590D02*
X000980Y008590D01*
X000980Y008511D02*
X000900Y008511D01*
X000900Y008433D02*
X000980Y008433D01*
X000980Y008354D02*
X000900Y008354D01*
X000900Y008276D02*
X000980Y008276D01*
X000980Y008197D02*
X000900Y008197D01*
X000900Y008119D02*
X000980Y008119D01*
X000980Y008040D02*
X000900Y008040D01*
X000900Y007962D02*
X000980Y007962D01*
X000980Y007883D02*
X000900Y007883D01*
X000900Y007805D02*
X000980Y007805D01*
X004174Y011965D02*
X004649Y011965D01*
X004581Y011887D02*
X004252Y011887D01*
X004298Y011808D02*
X004537Y011808D01*
X004513Y011730D02*
X004331Y011730D01*
X007329Y006784D02*
X007501Y006784D01*
X007423Y006706D02*
X007329Y006706D01*
X007330Y006627D02*
X007344Y006627D01*
X007810Y006078D02*
X010510Y006078D01*
X010510Y006156D02*
X007889Y006156D01*
X007967Y006235D02*
X010510Y006235D01*
X010510Y006313D02*
X008046Y006313D01*
X008124Y006392D02*
X010510Y006392D01*
X010510Y006470D02*
X008203Y006470D01*
X008281Y006549D02*
X010510Y006549D01*
X010510Y005999D02*
X007732Y005999D01*
X007653Y005921D02*
X010510Y005921D01*
X010510Y005842D02*
X007575Y005842D01*
X007496Y005764D02*
X010510Y005764D01*
X010510Y005685D02*
X007418Y005685D01*
X007339Y005607D02*
X010510Y005607D01*
X010510Y005528D02*
X007338Y005528D01*
X007338Y005450D02*
X010510Y005450D01*
X010510Y005371D02*
X007339Y005371D01*
X007340Y005293D02*
X010510Y005293D01*
X010510Y005214D02*
X007340Y005214D01*
X007318Y005136D02*
X010510Y005136D01*
X010510Y005057D02*
X007240Y005057D01*
X006711Y004979D02*
X010510Y004979D01*
X010510Y004900D02*
X006633Y004900D01*
X006554Y004822D02*
X010510Y004822D01*
X007990Y005390D02*
X007890Y005290D01*
X009077Y012122D02*
X010510Y012122D01*
X010510Y012201D02*
X009155Y012201D01*
X009234Y012279D02*
X010510Y012279D01*
X010510Y012358D02*
X009312Y012358D01*
X009391Y012436D02*
X010510Y012436D01*
X010510Y012515D02*
X009469Y012515D01*
X009548Y012593D02*
X010510Y012593D01*
X010510Y012672D02*
X009620Y012672D01*
X009620Y012750D02*
X010510Y012750D01*
X010510Y012829D02*
X009620Y012829D01*
X009620Y012907D02*
X010510Y012907D01*
X010510Y012986D02*
X009620Y012986D01*
X009620Y013064D02*
X010510Y013064D01*
X010510Y013143D02*
X009620Y013143D01*
X009620Y013221D02*
X010510Y013221D01*
X010510Y013300D02*
X009620Y013300D01*
X009620Y013378D02*
X010510Y013378D01*
X010510Y013457D02*
X009620Y013457D01*
X009620Y013535D02*
X010510Y013535D01*
X010510Y013614D02*
X009620Y013614D01*
X009543Y013692D02*
X010510Y013692D01*
X010510Y013771D02*
X009464Y013771D01*
X009386Y013849D02*
X010510Y013849D01*
X010510Y013928D02*
X009307Y013928D01*
X009229Y014006D02*
X010469Y014006D01*
X010391Y014085D02*
X009150Y014085D01*
X009072Y014163D02*
X010312Y014163D01*
D15*
X007740Y010740D03*
X007740Y009540D03*
X007740Y008340D03*
X006290Y009690D03*
X004290Y010640D03*
X003890Y010640D03*
X001690Y010540D03*
X003140Y006890D03*
X003440Y006440D03*
X003740Y006690D03*
X002640Y006490D03*
X003790Y004890D03*
X006090Y005640D03*
X007740Y005290D03*
M02*
